HIERARCHY
ROOT newVegas:Hips
{
	OFFSET 0.000000 96.479958 0.000000
	CHANNELS 6 Xposition Yposition Zposition Xrotation Yrotation Zrotation
	JOINT newVegas:Pelvis
	{
		OFFSET 0.000000 0.000000 0.000000
		CHANNELS 3 Xrotation Yrotation Zrotation
		JOINT newVegas:LeftUpLeg
		{
			OFFSET 18.735201 -5.666702 -4.541200
			CHANNELS 3 Xrotation Yrotation Zrotation
			JOINT newVegas:LeftLeg
			{
				OFFSET -0.021200 -31.938179 0.493100
				CHANNELS 3 Xrotation Yrotation Zrotation
				JOINT newVegas:LeftFoot
				{
					OFFSET 0.021200 -31.938179 -4.336299
					CHANNELS 3 Xrotation Yrotation Zrotation
					JOINT newVegas:LeftToeBase
					{
						OFFSET 0.943001 -26.722000 15.023500
						CHANNELS 3 Xrotation Yrotation Zrotation
						End Site
						{
							OFFSET 0.000000 30.670183 0.000000
						}
					}
				}
				JOINT newVegas:Left_PantLeg
				{
					OFFSET 0.663870 -9.044666 -1.108900
					CHANNELS 3 Xrotation Yrotation Zrotation
					End Site
					{
						OFFSET 1.415995 20.635357 0.000000
					}
				}
			}
		}
		JOINT newVegas:RightUpLeg
		{
			OFFSET -18.735201 -5.666702 -4.541200
			CHANNELS 3 Xrotation Yrotation Zrotation
			JOINT newVegas:RightLeg
			{
				OFFSET 0.018946 -31.938133 0.493100
				CHANNELS 3 Xrotation Yrotation Zrotation
				JOINT newVegas:RightFoot
				{
					OFFSET -0.018946 -31.938126 -4.336299
					CHANNELS 3 Xrotation Yrotation Zrotation
					JOINT newVegas:RightToeBase
					{
						OFFSET -0.943001 -26.722004 15.023500
						CHANNELS 3 Xrotation Yrotation Zrotation
						End Site
						{
							OFFSET 0.000000 30.670187 0.000000
						}
					}
				}
				JOINT newVegas:Right_PantLeg
				{
					OFFSET -0.661674 -9.044716 -1.108900
					CHANNELS 3 Xrotation Yrotation Zrotation
					End Site
					{
						OFFSET -1.415958 20.635269 0.000000
					}
				}
			}
		}
	}
	JOINT newVegas:Spine
	{
		OFFSET 0.000000 10.199997 -0.299500
		CHANNELS 3 Xrotation Yrotation Zrotation
		JOINT newVegas:Spine1
		{
			OFFSET 0.000000 11.900002 -1.516600
			CHANNELS 3 Xrotation Yrotation Zrotation
			JOINT newVegas:Spine2
			{
				OFFSET 0.000000 13.600006 -2.842500
				CHANNELS 3 Xrotation Yrotation Zrotation
				JOINT newVegas:Neck
				{
					OFFSET 0.000000 9.624100 -2.890100
					CHANNELS 3 Xrotation Yrotation Zrotation
					JOINT newVegas:Head
					{
						OFFSET 0.000000 14.068802 -1.351900
						CHANNELS 3 Xrotation Yrotation Zrotation
						JOINT newVegas:Hair_Back
						{
							OFFSET 0.000000 3.231903 -17.524799
							CHANNELS 3 Xrotation Yrotation Zrotation
							End Site
							{
								OFFSET 0.000000 19.849884 0.000000
							}
						}
						JOINT newVegas:Hair_Front
						{
							OFFSET 0.000000 31.260406 4.573800
							CHANNELS 3 Xrotation Yrotation Zrotation
							JOINT newVegas:Hair_Front1
							{
								OFFSET 0.000000 2.284103 11.993300
								CHANNELS 3 Xrotation Yrotation Zrotation
								JOINT newVegas:Hair_Front2
								{
									OFFSET 0.000000 2.284103 11.993300
									CHANNELS 3 Xrotation Yrotation Zrotation
									End Site
									{
										OFFSET 0.000000 12.208862 0.000000
									}
								}
							}
						}
						JOINT newVegas:Jowel
						{
							OFFSET 0.000000 -7.458206 6.864100
							CHANNELS 3 Xrotation Yrotation Zrotation
							End Site
							{
								OFFSET 0.000000 19.849884 0.000000
							}
						}
					}
				}
				JOINT newVegas:LeftShoulder
				{
					OFFSET 15.263000 10.923401 -0.547700
					CHANNELS 3 Xrotation Yrotation Zrotation
					JOINT newVegas:LeftArm
					{
						OFFSET 25.438599 -2.830597 -13.032500
						CHANNELS 3 Xrotation Yrotation Zrotation
						JOINT newVegas:LeftForeArm
						{
							OFFSET 29.960503 0.000000 0.000000
							CHANNELS 3 Xrotation Yrotation Zrotation
							JOINT newVegas:LeftHand
							{
								OFFSET 27.849251 0.000000 0.000000
								CHANNELS 3 Xrotation Yrotation Zrotation
								JOINT newVegas:LeftHandThumb1
								{
									OFFSET 4.487587 -3.305161 6.305391
									CHANNELS 3 Xrotation Yrotation Zrotation
									JOINT newVegas:LeftHandThumb2
									{
										OFFSET 5.480453 -3.164139 3.164143
										CHANNELS 3 Xrotation Yrotation Zrotation
										JOINT newVegas:LeftHandThumb3
										{
											OFFSET 5.159721 -2.978973 2.978967
											CHANNELS 3 Xrotation Yrotation Zrotation
											End Site
											{
												OFFSET 2.494507 5.926697 1.738678
											}
										}
									}
								}
								JOINT newVegas:LeftHandIndex1
								{
									OFFSET 18.578728 -0.527832 5.208049
									CHANNELS 3 Xrotation Yrotation Zrotation
									JOINT newVegas:LeftHandIndex2
									{
										OFFSET 3.192009 0.000000 0.000000
										CHANNELS 3 Xrotation Yrotation Zrotation
										JOINT newVegas:LeftHandIndex3
										{
											OFFSET 3.835129 0.000000 0.000000
											CHANNELS 3 Xrotation Yrotation Zrotation
											End Site
											{
												OFFSET -0.034599 3.816971 0.371180
											}
										}
									}
								}
								JOINT newVegas:LeftHandMiddle1
								{
									OFFSET 18.476105 0.000000 0.000000
									CHANNELS 3 Xrotation Yrotation Zrotation
									JOINT newVegas:LeftHandMiddle2
									{
										OFFSET 3.324875 0.000000 0.000000
										CHANNELS 3 Xrotation Yrotation Zrotation
										JOINT newVegas:LeftHandMiddle3
										{
											OFFSET 4.596550 0.000000 0.000000
											CHANNELS 3 Xrotation Yrotation Zrotation
											End Site
											{
												OFFSET 0.057701 4.578827 0.399218
											}
										}
									}
								}
								JOINT newVegas:LeftHandRing1
								{
									OFFSET 17.732719 0.121887 -4.201567
									CHANNELS 3 Xrotation Yrotation Zrotation
									JOINT newVegas:LeftHandRing2
									{
										OFFSET 2.733170 0.000000 0.000000
										CHANNELS 3 Xrotation Yrotation Zrotation
										JOINT newVegas:LeftHandRing3
										{
											OFFSET 3.178268 0.000000 0.000000
											CHANNELS 3 Xrotation Yrotation Zrotation
											End Site
											{
												OFFSET 0.119102 3.170624 0.185394
											}
										}
									}
								}
								JOINT newVegas:LeftHandPinky1
								{
									OFFSET 15.989624 -0.606689 -7.535461
									CHANNELS 3 Xrotation Yrotation Zrotation
									JOINT newVegas:LeftHandPinky2
									{
										OFFSET 2.538986 0.000000 0.000000
										CHANNELS 3 Xrotation Yrotation Zrotation
										JOINT newVegas:LeftHandPinky3
										{
											OFFSET 2.593102 0.000000 0.000000
											CHANNELS 3 Xrotation Yrotation Zrotation
											End Site
											{
												OFFSET -0.150902 2.584198 0.152708
											}
										}
									}
								}
							}
							JOINT newVegas:Left_Sleeve
							{
								OFFSET 0.267448 -0.649796 0.577675
								CHANNELS 3 Xrotation Yrotation Zrotation
								End Site
								{
									OFFSET 0.000000 15.991241 0.000000
								}
							}
							JOINT newVegas:Left_CapeC
							{
								OFFSET 15.715958 -8.608795 -6.935905
								CHANNELS 3 Xrotation Yrotation Zrotation
								JOINT newVegas:Left_CapeC1
								{
									OFFSET 0.000000 -8.688499 0.000000
									CHANNELS 3 Xrotation Yrotation Zrotation
									End Site
									{
										OFFSET 0.000000 8.688499 0.000000
									}
								}
							}
						}
						JOINT newVegas:Left_CapeB
						{
							OFFSET 26.118385 -8.608795 -7.079235
							CHANNELS 3 Xrotation Yrotation Zrotation
							JOINT newVegas:Left_CapeB1
							{
								OFFSET 0.000000 -8.688499 0.000000
								CHANNELS 3 Xrotation Yrotation Zrotation
								End Site
								{
									OFFSET 0.000000 8.688499 0.000000
								}
							}
						}
						JOINT newVegas:Left_CapeA
						{
							OFFSET 5.115639 -8.608795 -10.395809
							CHANNELS 3 Xrotation Yrotation Zrotation
							JOINT newVegas:Left_CapeA1
							{
								OFFSET 0.000000 -8.688499 0.000000
								CHANNELS 3 Xrotation Yrotation Zrotation
								End Site
								{
									OFFSET 0.000000 8.688499 0.000000
								}
							}
						}
					}
				}
				JOINT newVegas:RightShoulder
				{
					OFFSET -15.263000 10.923401 -0.547700
					CHANNELS 3 Xrotation Yrotation Zrotation
					JOINT newVegas:RightArm
					{
						OFFSET -25.438599 -2.830597 -13.032500
						CHANNELS 3 Xrotation Yrotation Zrotation
						JOINT newVegas:RightForeArm
						{
							OFFSET -29.960503 0.000000 0.000000
							CHANNELS 3 Xrotation Yrotation Zrotation
							JOINT newVegas:RightHand
							{
								OFFSET -27.849251 0.000000 0.000000
								CHANNELS 3 Xrotation Yrotation Zrotation
								JOINT newVegas:RightHandThumb1
								{
									OFFSET -4.487587 -3.305161 6.305391
									CHANNELS 3 Xrotation Yrotation Zrotation
									JOINT newVegas:RightHandThumb2
									{
										OFFSET -5.480453 -3.164139 3.164143
										CHANNELS 3 Xrotation Yrotation Zrotation
										JOINT newVegas:RightHandThumb3
										{
											OFFSET -5.159721 -2.978973 2.978967
											CHANNELS 3 Xrotation Yrotation Zrotation
											End Site
											{
												OFFSET -2.494507 5.926697 1.738678
											}
										}
									}
								}
								JOINT newVegas:RightHandIndex1
								{
									OFFSET -18.578728 -0.527832 5.208049
									CHANNELS 3 Xrotation Yrotation Zrotation
									JOINT newVegas:RightHandIndex2
									{
										OFFSET -3.192009 0.000000 0.000000
										CHANNELS 3 Xrotation Yrotation Zrotation
										JOINT newVegas:RightHandIndex3
										{
											OFFSET -3.835129 0.000000 0.000000
											CHANNELS 3 Xrotation Yrotation Zrotation
											End Site
											{
												OFFSET 0.034599 3.816971 0.371180
											}
										}
									}
								}
								JOINT newVegas:RightHandMiddle1
								{
									OFFSET -18.476105 0.000000 0.000000
									CHANNELS 3 Xrotation Yrotation Zrotation
									JOINT newVegas:RightHandMiddle2
									{
										OFFSET -3.324875 0.000000 0.000000
										CHANNELS 3 Xrotation Yrotation Zrotation
										JOINT newVegas:RightHandMiddle3
										{
											OFFSET -4.596550 0.000000 0.000000
											CHANNELS 3 Xrotation Yrotation Zrotation
											End Site
											{
												OFFSET -0.057701 4.578827 0.399218
											}
										}
									}
								}
								JOINT newVegas:RightHandRing1
								{
									OFFSET -17.732719 0.121887 -4.201567
									CHANNELS 3 Xrotation Yrotation Zrotation
									JOINT newVegas:RightHandRing2
									{
										OFFSET -2.733170 0.000000 0.000000
										CHANNELS 3 Xrotation Yrotation Zrotation
										JOINT newVegas:RightHandRing3
										{
											OFFSET -3.178268 0.000000 0.000000
											CHANNELS 3 Xrotation Yrotation Zrotation
											End Site
											{
												OFFSET -0.119102 3.170624 0.185394
											}
										}
									}
								}
								JOINT newVegas:RightHandPinky1
								{
									OFFSET -15.989624 -0.606689 -7.535461
									CHANNELS 3 Xrotation Yrotation Zrotation
									JOINT newVegas:RightHandPinky2
									{
										OFFSET -2.538986 0.000000 0.000000
										CHANNELS 3 Xrotation Yrotation Zrotation
										JOINT newVegas:RightHandPinky3
										{
											OFFSET -2.593102 0.000000 0.000000
											CHANNELS 3 Xrotation Yrotation Zrotation
											End Site
											{
												OFFSET 0.150902 2.584198 0.152708
											}
										}
									}
								}
							}
							JOINT newVegas:Right_CapeC
							{
								OFFSET -15.715958 -8.608795 -6.935905
								CHANNELS 3 Xrotation Yrotation Zrotation
								JOINT newVegas:Right_CapeC1
								{
									OFFSET 0.000000 -8.688499 0.000000
									CHANNELS 3 Xrotation Yrotation Zrotation
									End Site
									{
										OFFSET 0.000000 8.688499 0.000000
									}
								}
							}
							JOINT newVegas:Right_Sleeve
							{
								OFFSET -0.267448 -0.649994 0.577675
								CHANNELS 3 Xrotation Yrotation Zrotation
								End Site
								{
									OFFSET 0.000000 15.991302 0.000000
								}
							}
						}
						JOINT newVegas:Right_CapeA
						{
							OFFSET -5.115540 -8.608795 -10.395824
							CHANNELS 3 Xrotation Yrotation Zrotation
							JOINT newVegas:Right_CapeA1
							{
								OFFSET 0.000000 -8.688499 0.000000
								CHANNELS 3 Xrotation Yrotation Zrotation
								End Site
								{
									OFFSET 0.000000 8.688499 0.000000
								}
							}
						}
						JOINT newVegas:Right_CapeB
						{
							OFFSET -26.118187 -8.608795 -7.079266
							CHANNELS 3 Xrotation Yrotation Zrotation
							JOINT newVegas:Right_CapeB1
							{
								OFFSET 0.000000 -8.688499 0.000000
								CHANNELS 3 Xrotation Yrotation Zrotation
								End Site
								{
									OFFSET 0.000000 8.688499 0.000000
								}
							}
						}
					}
				}
				JOINT newVegas:Left_Collar
				{
					OFFSET 18.625099 8.655502 8.828100
					CHANNELS 3 Xrotation Yrotation Zrotation
					JOINT newVegas:Left_Collar1
					{
						OFFSET 14.783401 10.540405 -1.259500
						CHANNELS 3 Xrotation Yrotation Zrotation
						End Site
						{
							OFFSET 0.000000 18.199875 0.000000
						}
					}
				}
				JOINT newVegas:Collar_Back
				{
					OFFSET 0.000000 15.630707 -20.132601
					CHANNELS 3 Xrotation Yrotation Zrotation
					End Site
					{
						OFFSET 0.000000 22.523010 0.000000
					}
				}
				JOINT newVegas:Left_Peck
				{
					OFFSET 17.239599 -5.132599 25.482599
					CHANNELS 3 Xrotation Yrotation Zrotation
					End Site
					{
						OFFSET 0.000000 22.523010 0.000000
					}
				}
				JOINT newVegas:Right_Peck
				{
					OFFSET -17.239599 -5.132202 25.482599
					CHANNELS 3 Xrotation Yrotation Zrotation
					End Site
					{
						OFFSET 0.000000 22.523010 0.000000
					}
				}
				JOINT newVegas:Right_Collar
				{
					OFFSET -18.625099 8.655792 8.828100
					CHANNELS 3 Xrotation Yrotation Zrotation
					JOINT newVegas:Right_Collar1
					{
						OFFSET -14.783401 10.539993 -1.259500
						CHANNELS 3 Xrotation Yrotation Zrotation
						End Site
						{
							OFFSET 0.000000 18.199631 0.000000
						}
					}
				}
			}
		}
		JOINT newVegas:Belly
		{
			OFFSET 0.000000 -6.540398 9.014299
			CHANNELS 3 Xrotation Yrotation Zrotation
			End Site
			{
				OFFSET 0.000000 11.566666 0.000000
			}
		}
	}
	JOINT newVegas:ElvisFacialAnim_Joint
	{
		OFFSET 1.000000 -95.330101 -8.825800
		CHANNELS 3 Xrotation Yrotation Zrotation
		End Site
		{
			OFFSET 0.000000 35.315800 0.000000
		}
	}
}
MOTION
Frames: 4
Frame Time: 0.033333
-48.926628 22.060883 1.816471 -64.072652 45.230903 110.046471 -0.000000 -0.000001 -0.000001 -60.945853 -28.702077 46.865869 142.726242 -25.049510 -1.758646 6.880210 0.592249 -22.280453 0.000000 0.000001 -0.000000 -0.000000 0.000003 0.000001 -55.147033 2.136728 6.808614 -1.050268 -11.074532 -4.733271 47.232240 -2.159872 9.921838 -0.000001 0.000002 0.000000 0.000000 0.000003 -0.000001 15.373376 -30.817448 1.467195 4.122570 -8.165140 -1.788498 4.517746 -7.926863 -1.496259 2.371189 -0.347977 -1.230480 2.371175 -0.347996 -1.230489 -0.000001 0.000000 0.000003 2.371153 -0.348004 -1.230477 2.371293 -0.347926 -1.230494 0.000001 0.000000 0.000003 -0.000001 0.000000 0.000002 3.120723 -30.819118 -13.590857 -56.024596 -75.702579 -81.924055 0.000008 -28.899900 0.000007 59.287620 -18.540595 45.584218 -29.304435 2.633575 12.410761 7.385520 13.486290 5.705611 -0.000001 0.000000 -0.000006 1.583238 -4.009784 10.895813 0.022120 0.509210 -4.975263 0.000001 -0.000004 -0.000003 0.737580 -2.404265 8.689879 0.049964 0.764333 -7.480187 -0.000002 -0.000003 0.000000 -0.020520 3.014321 5.294338 0.019368 0.476493 -4.654998 0.000000 -0.000002 0.000002 -0.517454 14.475087 1.652867 0.059939 0.836815 -8.194380 0.000001 -0.000003 -0.000002 -0.000002 -0.000000 0.000001 -0.000002 -0.000000 0.000001 -0.000003 -0.000000 0.000001 -0.000000 0.000001 -0.000002 0.000000 0.000000 -0.000002 -0.000000 0.000001 -0.000002 -0.000001 0.000001 -0.000001 -1.116673 0.859017 -21.778026 -15.456534 19.786539 10.036968 -0.000009 38.649418 0.000011 9.567080 4.961618 -23.829304 4.388641 2.265218 -4.543463 7.868688 -15.159714 -4.636059 -0.000000 -0.000004 0.000001 0.343606 3.096149 -0.333013 0.700064 -2.457671 31.794701 0.000001 -0.000001 0.000001 -0.777498 0.514931 13.951028 0.475720 -2.052359 26.097854 0.000001 0.000001 0.000000 0.613859 -4.701676 18.983640 0.300919 -1.648490 20.688518 0.000000 0.000004 0.000002 1.797204 -14.589229 15.907036 0.255170 -1.521889 19.034875 -0.000003 -0.000005 -0.000003 -0.000002 -0.000003 -0.000002 0.000002 -0.000004 -0.000001 -0.000002 -0.000003 -0.000003 -0.000000 0.000001 0.000002 -0.000001 0.000001 0.000002 -0.000000 0.000001 0.000002 -0.000001 0.000001 0.000002 -0.000000 0.000001 0.000003 -0.000000 0.000001 0.000003 -0.000000 0.000001 0.000003 -0.000000 0.000001 0.000003 -0.000000 0.000001 0.000003 -0.000000 0.000001 0.000003 -0.000000 0.000001 0.000003 0.000000 0.000001 -0.000001 -0.000000 -0.000001 -0.000001 
-50.338634 22.422981 0.303051 -70.370517 46.339900 111.802964 -0.000002 0.000000 -0.000000 -74.443693 -34.622591 40.654058 144.449854 -24.164130 -1.400627 11.001492 -0.633504 -24.205560 0.000000 -0.000002 -0.000000 -0.000000 0.000004 0.000003 -63.080130 2.656375 9.514876 2.112074 -10.158828 -4.847988 47.562702 -10.138982 2.769434 0.000001 0.000001 -0.000002 -0.000001 0.000003 -0.000001 16.952868 -30.077059 2.000721 4.145464 -8.031022 -1.685951 4.512979 -7.802493 -1.386911 2.582195 -0.418490 -1.190092 2.582174 -0.418465 -1.190088 0.000001 0.000000 -0.000001 2.582220 -0.418447 -1.190090 2.582184 -0.418497 -1.190077 0.000000 -0.000002 -0.000000 0.000001 0.000000 -0.000000 0.945491 -33.223017 -16.308429 -50.784902 -75.737188 -75.676331 -0.000002 -28.752996 0.000001 61.111991 -16.800600 39.724428 -15.593621 3.460101 8.756493 7.470889 13.703465 4.822679 0.000000 0.000001 -0.000003 0.990086 -3.573199 5.017886 0.233126 1.637774 -16.201301 -0.000001 0.000002 -0.000001 -0.044135 -1.379609 -1.819608 0.221279 1.596471 -15.781688 -0.000002 -0.000001 -0.000002 0.255459 4.362376 -6.477637 0.150929 1.322524 -13.019818 0.000001 0.000001 -0.000002 0.829616 15.529267 -9.771919 0.232967 1.637249 -16.195932 0.000001 -0.000007 -0.000000 0.000003 -0.000001 0.000001 0.000003 -0.000001 0.000001 0.000002 -0.000000 0.000001 -0.000001 0.000000 0.000002 -0.000001 0.000000 -0.000001 -0.000001 0.000000 0.000002 -0.000002 0.000001 0.000002 -1.609430 -1.149544 -13.393508 -20.774654 16.131614 17.858143 -0.000027 53.921174 0.000030 18.421915 -0.969885 -22.398893 4.369130 2.293700 -4.509693 7.865350 -15.172555 -4.628344 0.000001 -0.000002 -0.000001 0.345842 3.097851 -0.284206 0.698154 -2.454584 31.750329 0.000002 0.000003 0.000001 -0.774164 0.501429 13.950173 0.475704 -2.052311 26.097383 -0.000000 0.000003 0.000004 0.715694 -4.874914 21.115701 0.355382 -1.786036 22.506073 -0.000000 0.000004 0.000002 1.890126 -14.894822 19.505169 0.349237 -1.771118 22.308209 -0.000001 -0.000002 0.000001 -0.000004 0.000003 0.000001 -0.000001 0.000001 0.000001 -0.000004 0.000002 0.000002 0.000000 0.000002 -0.000001 0.000000 0.000003 -0.000002 0.000000 0.000002 -0.000001 0.000001 0.000003 -0.000000 0.000002 0.000002 -0.000002 0.000002 0.000002 -0.000002 0.000002 0.000002 -0.000002 0.000002 0.000002 -0.000002 0.000002 0.000002 -0.000002 0.000002 0.000002 -0.000002 0.000002 0.000002 -0.000002 -0.000002 -0.000000 -0.000002 -0.000002 0.000000 -0.000000 
-50.927544 22.951714 -1.241043 -77.113915 47.324543 114.609003 -0.000000 0.000001 -0.000002 -90.322142 -37.079608 32.625970 146.107309 -24.251357 -1.083758 12.958150 -2.700651 -24.619955 0.000000 0.000002 0.000000 -0.000000 0.000001 0.000002 -71.024596 2.966831 10.033780 7.218920 -9.801058 -4.896662 46.276034 -18.148110 5.734280 0.000000 0.000002 -0.000004 0.000003 0.000003 -0.000003 19.247753 -31.284800 2.308095 4.544436 -8.336892 -1.708256 4.938608 -8.079473 -1.364752 2.721969 -0.387331 -1.407061 2.721937 -0.387355 -1.407083 -0.000000 0.000000 -0.000000 2.722061 -0.387410 -1.407048 2.721927 -0.387326 -1.407072 -0.000001 0.000001 0.000000 -0.000000 0.000000 0.000000 -1.272241 -35.228210 -18.857087 -46.789480 -75.570005 -70.514504 0.000007 -29.392920 -0.000005 63.396136 -16.393917 29.029038 1.836098 0.131192 5.008168 7.542347 13.880651 4.079224 -0.000000 -0.000003 -0.000003 0.426503 -3.058149 -0.511246 0.719446 2.814729 -28.670675 -0.000003 0.000001 -0.000001 -0.620130 -0.050742 -12.785231 0.526189 2.428501 -24.447347 0.000001 -0.000001 0.000001 0.813135 5.555350 -18.355302 0.427652 2.199078 -22.007100 0.000003 -0.000002 -0.000000 2.044052 16.136300 -20.772304 0.518837 2.412274 -24.273306 0.000001 -0.000002 -0.000000 0.000002 0.000001 -0.000000 0.000002 0.000001 -0.000000 0.000001 0.000001 -0.000000 0.000001 -0.000001 -0.000001 0.000001 -0.000002 -0.000003 0.000001 -0.000001 -0.000001 -0.000000 -0.000001 -0.000000 -1.288224 -1.674787 -8.566303 -23.838409 12.376934 27.104183 0.000002 61.888856 0.000019 24.533024 -3.057579 -25.262833 4.348784 2.323386 -4.474431 7.861933 -15.185939 -4.620288 0.000001 -0.000003 -0.000001 0.348157 3.099625 -0.233247 0.696187 -2.451407 31.704031 -0.000001 -0.000001 -0.000002 -0.770695 0.487364 13.949312 0.475683 -2.052286 26.096814 -0.000002 -0.000002 -0.000001 0.781541 -4.982244 22.342751 0.389647 -1.866499 23.580559 -0.000002 0.000002 0.000003 1.974565 -15.134285 22.286779 0.433543 -1.963967 24.894504 0.000001 0.000005 0.000000 -0.000000 -0.000001 -0.000003 0.000001 0.000001 0.000001 -0.000000 -0.000001 -0.000004 -0.000004 -0.000002 0.000003 -0.000004 -0.000001 0.000004 -0.000004 -0.000002 0.000003 -0.000004 -0.000001 0.000006 0.000001 0.000001 -0.000003 0.000001 0.000001 -0.000003 0.000001 0.000001 -0.000003 0.000001 0.000001 -0.000003 0.000001 0.000001 -0.000003 0.000001 0.000001 -0.000003 0.000001 0.000001 -0.000003 -0.000000 0.000000 -0.000000 -0.000000 0.000001 -0.000002 
-51.313507 23.451347 -2.449959 -83.829883 48.330497 117.998403 0.000001 0.000000 -0.000000 -107.978085 -36.535379 22.518529 147.890521 -20.981146 -0.613957 15.102713 -5.845049 -24.276451 0.000000 -0.000001 0.000000 0.000000 0.000002 -0.000001 -78.119578 2.765168 8.410647 12.555878 -9.601702 -3.434247 40.571757 -17.857169 9.933356 0.000002 -0.000001 -0.000003 -0.000002 -0.000001 0.000001 21.608832 -32.362225 2.326437 4.780562 -8.582553 -1.723978 5.186499 -8.314890 -1.345058 2.838874 -0.360142 -1.574834 2.838864 -0.360151 -1.574835 -0.000001 0.000002 -0.000001 2.838847 -0.360107 -1.574839 2.838914 -0.360149 -1.574834 -0.000000 0.000001 -0.000002 -0.000001 0.000002 0.000000 -2.386833 -36.072954 -19.402728 -43.265844 -77.125314 -64.675908 -0.000001 -32.422245 -0.000000 61.085291 -18.684525 10.576720 4.972952 -0.919254 4.455790 7.547164 13.891853 3.947781 0.000003 -0.000001 -0.000003 0.330458 -2.957203 -1.454938 0.832862 3.012601 -30.901531 -0.000002 -0.000002 -0.000002 -0.688761 0.206483 -14.713013 0.592712 2.569662 -25.972851 0.000005 0.000000 0.000000 0.935399 5.746057 -20.428237 0.491008 2.349631 -23.603225 0.000001 0.000001 -0.000001 2.244607 16.205449 -22.664084 0.579696 2.542823 -25.681269 -0.000000 -0.000003 -0.000000 -0.000000 0.000000 0.000000 -0.000000 0.000000 0.000000 -0.000001 0.000001 0.000000 -0.000001 0.000003 -0.000000 -0.000000 0.000002 -0.000003 -0.000001 0.000003 -0.000000 -0.000002 0.000003 0.000001 -1.342121 -0.086422 -4.332197 -23.625271 8.284291 33.825067 -0.000038 66.419095 0.000022 30.316768 -3.364141 -29.238298 4.327737 2.354089 -4.437964 7.858359 -15.199789 -4.611958 0.000000 -0.000001 0.000001 0.350578 3.101469 -0.180573 0.694134 -2.448084 31.656158 -0.000000 0.000001 0.000001 -0.767113 0.472792 13.948430 0.475650 -2.052204 26.095950 0.000001 -0.000002 0.000001 0.781073 -4.991038 22.128975 0.391183 -1.870034 23.628063 0.000002 0.000004 0.000003 2.013344 -15.250078 23.433952 0.478519 -2.058066 26.176277 0.000002 0.000001 0.000001 0.000003 -0.000000 0.000000 0.000001 -0.000001 0.000002 0.000003 -0.000001 0.000001 -0.000003 0.000001 -0.000003 -0.000004 0.000002 -0.000003 -0.000003 0.000001 -0.000003 -0.000003 0.000002 -0.000003 0.000003 0.000000 0.000002 0.000003 0.000000 0.000002 0.000003 0.000000 0.000002 0.000003 0.000000 0.000002 0.000003 0.000000 0.000002 0.000003 0.000000 0.000002 0.000003 0.000000 0.000002 -0.000000 0.000001 -0.000001 0.000001 0.000000 -0.000000 
